<svg width="183" height="292" viewBox="0 0 183 292" fill="none" xmlns="http://www.w3.org/2000/svg">
<path d="M56.5881 132.4C56.5881 148.556 56.01 163.212 54.8589 176.379C53.7027 189.546 52.26 202.666 50.5256 215.733H33.8173C32.0777 202.666 30.635 189.546 29.4839 176.379C28.3277 163.212 27.7548 148.556 27.7548 132.4V78.1916H56.5881V132.4ZM61.4839 262.462C61.4839 267.645 59.7548 272.16 56.2964 276.004C52.8381 279.848 48.1298 281.775 42.1714 281.775C36.2131 281.775 31.5048 279.848 28.0464 276.004C24.5881 272.16 22.8589 267.645 22.8589 262.462C22.8589 257.27 24.5881 252.749 28.0464 248.9C31.5048 245.056 36.2131 243.129 42.1714 243.129C48.1298 243.129 52.8381 245.056 56.2964 248.9C59.7548 252.749 61.4839 257.27 61.4839 262.462Z" fill="black"/>
<mask id="mask0_8_24" style="mask-type:luminance" maskUnits="userSpaceOnUse" x="0" y="0" width="183" height="292">
<path d="M0.333313 0H182.661V291.661H0.333313V0Z" fill="white"/>
</mask>
<g mask="url(#mask0_8_24)">
<path fill-rule="evenodd" clip-rule="evenodd" d="M95.651 60.9688C79.3385 125.677 36.6198 161.313 71.0625 230.401C85.6823 235.229 92.9843 135.771 118.151 159.797C113.479 185.156 120.083 217.807 122.125 242.464C124.568 271.875 75.4948 263.917 42.7083 291.484C92.2812 274.146 127.443 275.292 182.661 282.594C140.203 271.01 137.656 257.323 138.344 253.453C166.13 97.0729 97.5989 78.974 102.812 61.6927C106.875 48.1875 126.812 36.0573 165.531 25.9427C159.958 19.5104 148.24 16.0833 130.396 15.651C100.932 -14.9479 43.6302 -0.218747 36.2812 59.8646C64.4166 28.1771 103.547 29.6354 95.651 60.9688ZM100.651 11.9688C103.734 11.9688 106.234 14.4635 106.234 17.5417C106.234 20.6146 103.734 23.1094 100.651 23.1094C97.5625 23.1094 95.0625 20.6146 95.0625 17.5417C95.0781 14.4635 97.5781 11.9688 100.651 11.9688ZM24.7343 241.75C1.80205 239.375 -4.20836 216.453 6.72914 172.979C10.7864 193.927 16.6146 212.422 24.1979 228.458C25.8906 234.458 26.0677 238.885 24.7343 241.75Z" fill="black"/>
</g>
</svg>
